<svg xmlns="http://www.w3.org/2000/svg" viewBox="0 0 160 160" width="160" height="160" role="img" aria-label="bartack-machine machine diagram">
  <rect x="4" y="4" width="152" height="152" rx="12" fill="#F4F6F9" stroke="#D7DCE3" stroke-width="2"/>
  <path d="M40 110 h80 v10 h-80 z" fill="#9AA3AF"/>
  <path d="M55 60 q0 -25 25 -25 h20 v20 h-15 q-10 0 -10 10 v20 h-20 z" fill="#17408F" opacity="0.85"/>
  <rect x="58" y="98" width="24" height="14" fill="none" stroke="#17408F" stroke-width="2"/><line x1="60" y1="98" x2="62" y2="112" stroke="#E74C3C" stroke-width="1.4"/><line x1="63" y1="98" x2="65" y2="112" stroke="#E74C3C" stroke-width="1.4"/><line x1="66" y1="98" x2="68" y2="112" stroke="#E74C3C" stroke-width="1.4"/><line x1="69" y1="98" x2="71" y2="112" stroke="#E74C3C" stroke-width="1.4"/><line x1="72" y1="98" x2="74" y2="112" stroke="#E74C3C" stroke-width="1.4"/><line x1="75" y1="98" x2="77" y2="112" stroke="#E74C3C" stroke-width="1.4"/><line x1="78" y1="98" x2="80" y2="112" stroke="#E74C3C" stroke-width="1.4"/><line x1="81" y1="98" x2="83" y2="112" stroke="#E74C3C" stroke-width="1.4"/>
</svg>